# xmcd
#
# Track frame offsets: 
#        150
#        17542
#        38270
#        63195
#        78407
#        101817
#        121355
#        134752
#        150895
#        165005
#        179597
#
# Disc length: 2574 seconds
#
# Revision: 0
# Processed by: cddbd v1.5PL3 Copyright (c) Steve Scherf et al.
# Submitted via: ExactAudioCopy v0.95a3
#
DISCID=790a0c0b
DTITLE=MICHELETTI - Sunset Feeling
DYEAR=1996
DGENRE=Blues
TTITLE0=Sunset Feeling
TTITLE1=Waiting For You
TTITLE2=Foolin' Around
TTITLE3=Maybe Tomorrow
TTITLE4=Moonlight Fever
TTITLE5=Down By The River
TTITLE6=I'm Gonna Move
TTITLE7=Walking Down The Road
TTITLE8=Song For Bessie
TTITLE9=Backdoor Rider
TTITLE10=We Was Together
EXTD=
EXTT0=
EXTT1=
EXTT2=
EXTT3=
EXTT4=
EXTT5=
EXTT6=
EXTT7=
EXTT8=
EXTT9=
EXTT10=
PLAYORDER=
